<svg xmlns="http://www.w3.org/2000/svg" width="800" height="928" viewBox="0 0 800 928" fill="none"><path fill="#312E81" d="m787.5 422.801-350-221.012c-22.87-14.385-50.63-14.385-73.5 0L12.5 422.801C4.81 427.855.053 437.171 0 447.278c.683 9.336 5.358 17.692 12.5 22.343l350 224.425c22.822 14.605 50.68 14.605 73.5 0l351.5-224.425c7.142-4.651 11.817-13.007 12.5-22.343-.053-10.107-4.811-19.425-12.5-24.477Z"/><path fill="#3730A3" d="M799.998 448.001c-.682 7.323-5.357 13.877-12.5 17.526L401 663 12.5 465.526C5.358 461.877.683 455.323 0 448v448.409C0 913.855 15.838 928 35.375 928h729.25C784.161 928 800 913.857 800 896.409l-.002-448.408Z"/><path fill="#10B981" fill-rule="evenodd" d="M586.5 317c17.949 0 32.5-14.551 32.5-32.5 0-.167-.001-.334-.004-.5h28.008c-.003.166-.004.333-.004.5 0 17.949 14.551 32.5 32.5 32.5 17.949 0 32.5-14.551 32.5-32.5 0-.167-.001-.334-.004-.5H740v205.5l-339.5 207L60 489.326V284h29.004c-.003.166-.004.333-.004.5 0 17.949 14.551 32.5 32.5 32.5 17.949 0 32.5-14.551 32.5-32.5 0-.167-.001-.334-.004-.5h28.008c-.003.166-.004.333-.004.5 0 17.949 14.551 32.5 32.5 32.5 17.949 0 32.5-14.551 32.5-32.5 0-.167-.001-.334-.004-.5h28.008c-.003.166-.004.333-.004.5 0 17.949 14.551 32.5 32.5 32.5 17.949 0 32.5-14.551 32.5-32.5 0-.167-.001-.334-.004-.5h28.008c-.003.166-.004.333-.004.5 0 17.949 14.551 32.5 32.5 32.5 17.949 0 32.5-14.551 32.5-32.5 0-.167-.001-.334-.004-.5h28.008c-.003.166-.004.333-.004.5 0 17.949 14.551 32.5 32.5 32.5 17.949 0 32.5-14.551 32.5-32.5 0-.167-.001-.334-.004-.5h28.008c-.003.166-.004.333-.004.5 0 17.949 14.551 32.5 32.5 32.5Z" clip-rule="evenodd"/><path stroke="#ECFDF5" stroke-linecap="round" stroke-linejoin="round" stroke-width="16" d="M466.667 451 375 542.667 333.333 501"/><path fill="#4338CA" d="M800 836 460 636l-30.529-17.409a59.998 59.998 0 0 0-59.818.215L340 636 0 836v60.409C0 913.855 15.838 928 35.375 928h729.25C784.161 928 800 913.857 800 896.409V836Z"/><path stroke="#34D399" stroke-linecap="round" stroke-width="18" d="m605 220 77.942-45M400 9v90M521 131.724 572.622 58M118 175l77.942 45M227 58l51.622 73.724"/><path fill="#059669" d="m458 634.9 282-145.4L480 648l-22-13.1ZM342 634.9 60 489.5 320 648l22-13.1Z"/></svg>